<svg width="514" height="175" viewBox="0 0 514 175" fill="none" xmlns="http://www.w3.org/2000/svg">
<path d="M509.547 58.8498C510.16 68.3855 504.765 78.8559 492.838 89.799C480.974 100.685 463.233 111.465 440.737 121.455C395.789 141.416 332.727 157.847 262.242 165.883C191.757 173.919 127.515 172.001 80.6715 162.505C57.2264 157.752 38.3664 151.145 25.2841 143.103C12.1332 135.019 5.47853 125.922 4.86488 116.387C4.25123 106.851 9.64674 96.3806 21.5732 85.4375C33.4374 74.5516 51.1786 63.7719 73.6749 53.7814C118.623 33.8201 181.684 17.3893 252.169 9.35354C322.654 1.31781 386.896 3.23521 433.74 12.7317C457.185 17.4846 476.045 24.0915 489.127 32.1334C502.278 40.2174 508.933 49.314 509.547 58.8498Z" stroke="#FEDB51" stroke-width="8"/>
</svg>
