<?xml version="1.0" encoding="UTF-8"?>
<svg id="Calque_1" data-name="Calque 1" xmlns="http://www.w3.org/2000/svg" viewBox="0 0 378.08 567.5">
  <defs>
    <style>
      .cls-1 {
        stroke-width: 0px;
      }
    </style>
  </defs>
  <g id="fAYoK6.tif">
    <path class="cls-1" d="m378.08,86.27v15.89c-.28,1.46-.6,2.9-.82,4.37-4.51,30.03-19.36,53.31-45.34,69.21-12.5,7.65-26.18,11.84-40.82,13.19,4.17,1.01,8.39,1.58,12.5,2.57,34.32,8.29,57.7,28.95,69.38,62.36,2.43,6.94,3.44,14.37,5.11,21.58v15.89c-.26,1.34-.59,2.67-.78,4.03-3.72,26.47-15.84,48.14-37.33,64.13-21.23,15.8-45.16,21.56-71.32,17.41-27.95-4.44-49.51-18.89-64.81-42.58-8.1-12.55-12.85-26.4-14.77-41.28v5.62c0,57.23.06,114.47-.08,171.7-.02,6.9-.49,13.91-1.75,20.68-6.84,36.78-35.85,66.32-72.52,74.15-4.66,1-9.41,1.56-14.11,2.32h-12.1c-1.35-.24-2.69-.57-4.06-.71-12.7-1.27-24.67-4.95-35.74-11.25-38.09-21.66-56.14-64-45.53-106.49,8.91-35.68,39.66-63.73,75.93-69.29,2.67-.41,5.31-.96,7.96-1.44-46.74-4.37-80.37-39.67-86.05-81.78-3.63-26.86,3.28-51.11,20.07-72.2,16.79-21.09,39.43-31.99,66.23-35.04-7.25-1.55-14.23-2.33-20.72-4.53C29.68,172.23,7.5,146.53,1.26,108.04c-4.52-27.91,3.2-53.14,21.38-74.62C41.94,10.62,67.21.04,96.94.03c61.23-.03,122.46-.05,183.69.05,6.14.01,12.38.34,18.4,1.47,35.33,6.64,59.99,26.6,72.88,60.3,2.98,7.78,4.15,16.26,6.16,24.42Zm-188.84,187.55c4.26-36.29,30.85-76.62,84.33-84.44h-84.33v84.44Z"/>
  </g>
</svg>