<?xml version="1.0" encoding="UTF-8"?>
<svg id="Calque_1" data-name="Calque 1" xmlns="http://www.w3.org/2000/svg" viewBox="0 0 240.49 263.98">
  <defs>
    <style>
      .cls-1 {
        stroke-width: 0px;
      }
    </style>
  </defs>
  <path class="cls-1" d="m239.49,110.96c-1.61,13.64-5.26,26.72-13.14,38.14-10.82,15.69-26.81,23.62-44.66,28.24-6.73,1.74-13.69,2.63-20.07,3.82,2.35,3.89,5.03,7.6,6.96,11.66,3.29,6.96,3.71,14.55,3.74,22.12.05,15.19-.03,30.39.03,45.59.01,1.45.69,2.58,1.82,3.45h-91.62c1.68-1.28,2.84-2.54,2.84-3.74,0-4.46-.13-8.92-.16-13.37-.03-5.8,0-11.6,0-16.57-8.81,0-17.08.29-25.33-.08-9.51-.43-18.4-2.93-25.75-9.55-4.59-4.13-6.86-9.56-9.27-14.99-4.22-9.51-9.5-18.17-18.9-23.63-2.06-1.2-3.6-3.42-5.16-5.36-1.56-1.95-.81-3.84,1.5-3.97,3.78-.22,7.82-.51,11.37.54,9.58,2.84,16.65,9.15,21.7,17.76,3.28,5.6,7.43,10.39,13,13.82,10.62,6.52,21.62,4.58,32.71,1.57,3.35-.91,5.29-2.58,5.44-6.28.07-1.77.68-3.63,1.5-5.23,2.4-4.7,5.03-9.28,7.58-13.93-.08-.02-.62-.07-1.15-.19-9.97-2.26-20.24-3.65-29.84-6.98-16.16-5.6-29.51-15.3-37.4-31.18-5.61-11.28-8.56-23.26-9.73-35.78-2.01-21.39,1.32-41.21,16.02-57.95.7-.8,1.02-2.54.67-3.55-4.36-12.47-3.7-24.9-.06-37.37C36.47-.08,37.93-1,46.1.73c.22.05.44.13.66.19,12.78,3.37,24.52,9.04,35.65,16.13,1.42.91,3.7,1.36,5.32.95,27.3-6.87,54.56-6.86,81.88-.02,1.62.4,3.78-.09,5.35-.86,8.75-4.36,17.29-9.16,26.13-13.33,5.34-2.53,11.1-4.25,17.19-3.39,1.02.15,2.47.95,2.8,1.81,5.33,13.89,7.28,28.02,2.24,42.46-.68,1.96-.44,3.27.94,4.85,7.67,8.78,12.61,18.92,14.82,30.4,1.98,10.33,1.63,20.7.41,31.04Z"/>
</svg>