<?xml version="1.0" encoding="UTF-8"?>
<svg id="Calque_1" data-name="Calque 1" xmlns="http://www.w3.org/2000/svg" viewBox="0 0 250.13 295.31">
  <defs>
    <style>
      .cls-1 {
        opacity: .3;
      }

      .cls-2, .cls-3 {
        stroke-width: 0px;
      }

      .cls-3 {
        fill: #ffd2bc;
      }
    </style>
  </defs>
  <g>
    <path class="cls-3" d="m99.97,137.29c2.25.1,4.64.9,7.2,1.76,15.69,5.27,29.28,15.62,40.59,27.7,3.84,4.1,7.7,8.49,11.37,13.1,6.9,8.63,13.17,18.04,17.49,27.89,7.85,17.87,9.31,37.17-3.4,55.8-11.3,16.57-30.56,26.7-50.4,29.63-19.84,2.94-40.21-.76-59.06-7.57-9.22-3.32-18.36-7.62-26.67-12.98-13.39-8.63-24.64-20.02-30.67-34.6-5.05-12.21-6.04-25.79-4.85-38.94,1.2-13.16,4.5-26.02,7.79-38.81"/>
    <path class="cls-2" d="m99.97,138.42c3.55.21,7.14,1.72,10.42,3s6.18,2.67,9.14,4.29c6.02,3.29,11.65,7.27,16.87,11.72s10.25,9.64,14.92,14.91c5.07,5.71,9.87,11.66,14.18,17.97,7.88,11.54,14.51,24.69,15.81,38.8s-3.49,27.77-12.58,38.55c-8.17,9.69-19.23,16.67-31.16,20.78-13.5,4.65-27.97,5.53-42.08,3.83-14.99-1.8-29.89-6.34-43.55-12.75-12.45-5.84-24.23-13.63-33.3-24.06-9.24-10.63-14.59-23.67-15.95-37.67-1.51-15.49,1.31-30.93,4.95-45.94.91-3.76,1.88-7.51,2.84-11.25.36-1.4-1.81-2-2.17-.6C4.28,175.54.23,191.34,0,207.51c-.2,14.73,2.99,29.42,11.17,41.83,7.53,11.43,18.34,20.36,30.11,27.16,13.54,7.82,28.68,13.28,43.98,16.36s30.3,3.53,45.07,0c12.61-3.01,24.66-8.94,34.26-17.71,10.38-9.48,17.7-22.43,18.97-36.55s-3.53-28.04-10.38-40.2c-3.73-6.63-8.12-12.86-12.84-18.81s-9.94-11.93-15.44-17.38c-9.94-9.86-21.54-18.28-34.7-23.26-3.27-1.24-6.72-2.57-10.24-2.78-1.45-.09-1.44,2.16,0,2.25h0Z"/>
  </g>
  <path class="cls-2" d="m101.83,185.42c3.36,3.2,6.93,6.16,10.51,9.1l-.18-1.36c-8.73,13.39-9.44,31.28-1.91,45.36.68,1.28,2.63.14,1.94-1.14-7.17-13.4-6.39-30.38,1.91-43.09.25-.38.19-1.06-.18-1.36-3.58-2.94-7.15-5.9-10.51-9.1-1.05-1-2.64.59-1.59,1.59h0Z"/>
  <g>
    <path class="cls-3" d="m91.2,110.91c6.06,7.43,7.53,17.02,8.77,26.39,2.25.1,4.64.9,7.2,1.76,15.69,5.27,29.28,15.62,40.59,27.7,3.84,4.1,7.7,8.49,11.37,13.1,6.9,8.63,13.17,18.04,17.49,27.89,2.28-1.26,2.78-4.41,4.09-7.33,3.35-7.52,6.78-15.01,10.28-22.47,14.02-29.8,29.28-59.03,45.74-87.56.33-.57.66-1.14.99-1.71,4.89-8.44,10-17.15,11.09-26.85.86-7.6-1.48-16.03-6.88-21.12-.1-.1-.18-.18-.28-.27-.73-.66-1.51-1.26-2.35-1.79-.79-.5-1.62-.94-2.5-1.31-7.74-3.24-16.95-.24-23.34,5.22-6.39,5.45-10.57,12.96-14.76,20.24-14.88,25.77-31.56,50.43-48.25,75.05-.2.29-.4.59-.6.88-3.96-34.78-7.91-69.57-11.87-104.36-.79-6.92-1.61-14-4.6-20.29-2.98-6.31-8.55-11.81-15.45-12.8-4.16-.6-8.24.54-11.79,2.75-4.07,2.53-7.45,6.47-9.49,10.83-3.82,8.17-4.01,17.5-4.12,26.52-.21,16.88-.42,33.76-.63,50.64-.07,5.95,1.04,13.19-.72,18.89Z"/>
    <path class="cls-2" d="m90.4,111.7c5.8,7.23,7.26,16.67,8.44,25.59.08.63.45,1.08,1.12,1.12,3.42.21,6.86,1.63,10.03,2.85s6.07,2.58,8.98,4.14c5.86,3.14,11.35,6.95,16.45,11.2,5.14,4.29,9.84,9.03,14.33,13.98,4.93,5.44,9.63,11.11,13.9,17.09,4.63,6.48,8.77,13.33,11.99,20.63.24.55,1.07.69,1.54.4,1.82-1.11,2.68-2.98,3.41-4.91,1-2.64,2.15-5.21,3.31-7.79,2.47-5.48,4.98-10.95,7.54-16.39,5.02-10.7,10.2-21.33,15.54-31.87,10.63-21.01,22.06-41.55,33.73-61.99,5.05-8.84,10.15-18.76,9.33-29.26-.71-9.15-5.84-18.64-15.29-21.04s-19.08,2.67-25.37,9.48c-3.44,3.72-6.21,8.01-8.78,12.35-2.85,4.81-5.61,9.68-8.48,14.48-12.16,20.27-25.32,39.93-38.56,59.5-1.55,2.29-3.11,4.58-4.65,6.88l2.1.57c-2.19-19.29-4.39-38.58-6.58-57.86-1.1-9.64-2.19-19.29-3.29-28.93-.54-4.78-1.09-9.56-1.63-14.34-.5-4.42-.93-8.86-1.75-13.24-1.42-7.53-4.35-15.12-10.5-20.04-2.76-2.21-5.98-3.75-9.51-4.18-4.11-.5-8.25.61-11.78,2.71-15.69,9.35-14.42,29.94-14.62,45.74-.12,9.68-.24,19.36-.36,29.04-.06,4.8-.14,9.6-.18,14.4-.04,4.19.41,8.37.24,12.56-.08,2.05-.34,4.06-.92,6.02-.41,1.39,1.76,1.99,2.17.6,1.11-3.76,1.12-7.73.98-11.61-.15-4.27-.21-8.51-.16-12.79.12-9.27.23-18.54.35-27.8.11-8.98-.07-18.03.51-26.99.52-8.07,2.19-16.57,7.76-22.77,5.28-5.87,13.55-9.13,20.97-5.26,6.81,3.55,10.48,10.73,12.22,17.92,1,4.1,1.48,8.29,1.96,12.47.53,4.62,1.05,9.23,1.57,13.85,1.06,9.32,2.12,18.63,3.18,27.95,2.11,18.55,4.22,37.09,6.33,55.64.26,2.31.52,4.62.79,6.92.12,1.1,1.44,1.54,2.1.57,12.66-18.75,25.39-37.47,37.31-56.7,3.01-4.85,5.97-9.73,8.86-14.65,2.61-4.43,5.07-8.95,7.84-13.28,5.17-8.08,12.19-15.79,22.16-17.32,4.66-.71,9.53.31,13.22,3.34s5.73,7.05,6.83,11.41c2.52,10-1.43,19.93-6.12,28.64-5.27,9.78-11.06,19.29-16.42,29.03s-10.8,19.92-15.98,29.99c-5.22,10.15-10.29,20.37-15.21,30.66-2.46,5.14-4.88,10.3-7.27,15.48s-4.94,10.24-6.96,15.51c-.71,1.85-1.23,4.27-3.04,5.37l1.54.4c-6.02-13.63-15.14-25.72-25-36.79-9.09-10.2-19.21-19.53-31.2-26.23-3.23-1.8-6.58-3.4-10.02-4.76-3.61-1.44-7.49-3-11.41-3.23l1.12,1.12c-1.28-9.59-2.87-19.42-9.1-27.18-.91-1.13-2.49.47-1.59,1.59Z"/>
  </g>
  <g>
    <path class="cls-3" d="m54.65,175.92c1.78,6.83,3.95,13.65,7.75,19.59.83,1.3,1.75,2.55,2.75,3.73,3.56,4.25,8.15,7.64,13.48,9.08,6.81,1.84,14.81-.01,19.21-5.52,3.76-4.71,4.44-11.12,4.74-17.14.01-.35.03-.69.04-1.04-2.31-2.2-4.49-4.53-6.47-7.03-4.84-6.14-8.4-13.58-8.56-21.4-.1-4.38,1-9.04,3.31-12.88.7-1.16,1.5-2.24,2.42-3.22,2.08-2.22,4.29-2.9,6.65-2.81-1.24-9.37-2.72-18.95-8.77-26.39-.55-.69-1.15-1.36-1.79-2.01-7.08-7.17-19.12-9.9-27.57-4.42-8.76,5.68-10.84,17.13-11.67,27.03-.08,1.03-.15,2.05-.22,3.03-.91,13.93,1.22,27.92,4.71,41.38Z"/>
    <path class="cls-2" d="m53.57,176.22c2.51,9.6,5.92,19.46,13.28,26.49,6.22,5.94,15.01,9.16,23.45,6.45,3.86-1.24,7.23-3.66,9.45-7.08,2.46-3.78,3.31-8.35,3.71-12.77.1-1.08.17-2.16.22-3.24.06-1.22.15-1.83-.76-2.71-1.85-1.8-3.62-3.68-5.26-5.67-3.08-3.75-5.69-8.01-7.28-12.61-1.77-5.1-2.25-10.6-.79-15.84,1.35-4.85,4.62-10.96,10.37-10.82.55.01,1.2-.53,1.12-1.12-1.22-9.15-2.67-18.75-8.41-26.3-5.05-6.64-13.18-10.93-21.63-10.52s-14.87,5.77-18.16,13.25c-3.47,7.9-4.13,17.1-4.27,25.63-.21,12.45,1.84,24.84,4.94,36.87.36,1.4,2.53.81,2.17-.6-2.58-9.98-4.42-20.19-4.8-30.51-.32-8.53.04-17.6,2.37-25.87,2.05-7.28,6.52-14.1,14.26-16.01s15.73,1.11,21.04,6.46c7.24,7.31,8.93,17.83,10.23,27.6l1.12-1.12c-8.11-.19-12.33,9.13-13.26,15.99-1.07,7.91,1.62,15.83,5.9,22.42,2.59,3.99,5.79,7.56,9.22,10.85l-.33-.8c-.21,5.03-.51,10.4-2.9,14.95-2.25,4.28-6.29,7-10.99,7.95-10.49,2.13-19.86-5.17-24.95-13.73-3.34-5.61-5.29-11.89-6.93-18.18-.37-1.4-2.54-.81-2.17.6Z"/>
  </g>
  <g>
    <path class="cls-3" d="m9.7,159.36c-.21,12.11,3.25,24.51,8.37,35.13,4.02,8.35,9.8,16.38,18.2,20.32,8.4,3.93,19.78,2.53,25.1-5.06,2.16-3.07,3.12-6.76,3.78-10.5-1-1.19-1.92-2.44-2.75-3.73-3.8-5.94-5.97-12.77-7.75-19.59-3.49-13.46-5.62-27.45-4.71-41.38.07-.99.14-2,.22-3.03-5.23-4.07-11.74-7.34-17.67-6.95-7.83.52-14.45,6.55-17.91,13.59-3.28,6.65-4.76,13.88-4.88,21.21Z"/>
    <path class="cls-2" d="m8.57,159.36c-.12,8.77,1.55,17.52,4.42,25.79,2.57,7.41,5.98,14.73,10.88,20.9,4.41,5.56,10.44,10.26,17.55,11.58,6.26,1.16,13.13,0,18.08-4.18,2.83-2.39,4.61-5.71,5.67-9.23.29-.97.53-1.96.74-2.95.19-.93.61-1.98.04-2.81-1.3-1.89-2.71-3.61-3.84-5.63-4.35-7.76-6.47-16.75-8.29-25.38-1.94-9.23-3.1-18.65-2.94-28.09.04-2.25.17-4.5.33-6.74.07-1,.17-1.54-.64-2.2s-1.72-1.28-2.61-1.86c-3.31-2.19-7.01-4.03-10.93-4.78-7.2-1.38-14.09,1.84-18.88,7.14-5.39,5.97-8.06,14.13-9.1,21.99-.28,2.15-.43,4.31-.48,6.47-.03,1.45,2.22,1.45,2.25,0,.18-8.44,2.07-17.46,7-24.47,4.33-6.14,11.51-10.54,19.19-8.83,4.65,1.03,8.85,3.55,12.58,6.43l-.56-.97c-.74,9.47-.36,18.86,1.08,28.25s3.44,18.55,6.8,27.22c1.83,4.71,4.19,9.17,7.43,13.07l-.29-1.09c-.64,3.58-1.53,7.21-3.67,10.23-1.54,2.17-3.7,3.83-6.11,4.94-5.02,2.3-11.06,2.19-16.18.26-5.9-2.22-10.67-6.94-14.22-12.03-3.91-5.61-6.77-11.98-8.96-18.43-2.68-7.9-4.24-16.19-4.12-24.55.02-1.45-2.23-1.45-2.25,0Z"/>
  </g>
  <g class="cls-1">
    <g>
      <g class="cls-1">
        <path class="cls-2" d="m36.64,270.94c.13.57.28,1.13.45,1.68,8.32,5.36,17.46,9.66,26.67,12.98,18.86,6.81,39.23,10.51,59.06,7.57,19.84-2.93,39.1-13.06,50.4-29.63,12.71-18.63,11.24-37.93,3.4-55.8,2.28-1.26,2.78-4.41,4.09-7.33,3.35-7.52,6.78-15.01,10.28-22.47,14.02-29.8,29.28-59.03,45.74-87.56.33-.57.66-1.14.99-1.71,4.89-8.44,10-17.15,11.09-26.85.86-7.6-1.48-16.03-6.88-21.12-7.61,32.71-25.96,61.73-44,90.05-9.13,14.33-18.25,28.65-27.38,42.98-1.47,2.31-3.07,4.73-5.55,5.89-2,.94-3.99.91-5.89.23-4.27-1.5-8.1-6.22-10.59-10.47,6.41,20.77,10.39,43.95,1.31,63.69-8.89,19.32-28.98,31.59-49.7,36.37-20.71,4.77-42.3,3.15-63.5,1.5Z"/>
      </g>
      <g class="cls-1">
        <path class="cls-2" d="m106.16,4.03c10.29,7.94,16.31,21.41,18.51,34.56,2.74,16.38.94,33.19,2.52,49.73,1.21,12.71,4.43,25.21,9.51,36.93,2.71,6.23,6.75,12.89,13.41,14.28.13-.56.24-1.11.36-1.67-.2.29-.4.59-.6.88-3.96-34.78-7.91-69.57-11.87-104.36-.79-6.92-1.61-14-4.6-20.29-2.98-6.31-8.55-11.81-15.45-12.8-4.16-.6-8.24.54-11.79,2.75Z"/>
      </g>
      <g class="cls-1">
        <path class="cls-2" d="m86.26,145.01c-4.83,4.67-6.86,11.68-6.73,18.4.12,6.72,2.18,13.24,4.53,19.53,1.38,3.7,2.85,7.94.98,11.42-2.26,4.22-8.25,4.81-12.77,3.24-7.05-2.45-12.32-8.6-15.4-15.4-3.08-6.8-4.26-14.28-5.41-21.66-.26,10.12-.58,20.53-4.64,29.8-4.05,9.27-12.8,17.25-22.92,17.25,7.76,6.05,15.71,11.85,24.01,17.13,3.23,2.05,6.73,4.09,10.56,4.11,3.83.02,7.94-2.79,7.93-6.62,6.92,10.76,22.4,14.93,33.78,9.11,3.05,2.03,6.35,3.68,9.8,4.89-4.47-9.4-4.67-20.72-.55-30.28,1.27-2.95,2.98-6.01,2.44-9.18-.62-3.64-3.95-6.08-6.78-8.45-12.35-10.35-19.28-26.84-18.03-42.91"/>
      </g>
    </g>
    <g class="cls-1">
      <path class="cls-2" d="m239.59,39.49l2.08.95c-.73-.66-1.51-1.26-2.35-1.79.07.28.16.56.27.84Z"/>
    </g>
  </g>
</svg>