<svg width="41" height="36" viewBox="0 0 41 36" fill="none" xmlns="http://www.w3.org/2000/svg">
<path d="M12.2837 1.64784H11.9193L11.8077 1.99468L1.33654 34.5343L1.12635 35.1875H1.8125H7.96876H8.33901L8.44701 34.8333L11.1511 25.9661H20.7904L23.6368 34.8402L23.7482 35.1875H24.1129H30.5117H31.2008L30.9871 34.5324L20.3702 1.99275L20.2577 1.64784H19.8949H12.2837ZM14.7481 13.1119L14.7481 13.1119L14.7499 13.1062C15.136 11.8251 15.483 10.3831 15.8114 9.01877C15.8338 8.92598 15.856 8.83355 15.8782 8.74155C16.2437 10.177 16.6435 11.7064 17.0915 13.1136L17.0918 13.1146L19.4524 20.4771H12.432L14.7481 13.1119ZM39.6875 4.60978H39.6877L39.6873 4.59658C39.6601 3.56754 39.291 2.63235 38.6149 1.95197C37.9361 1.26895 36.9799 0.875 35.8423 0.875C33.5854 0.875 31.9977 2.49232 31.9977 4.60978C31.9977 6.67431 33.5321 8.29651 35.7938 8.29651C36.9511 8.29651 37.9297 7.90571 38.6214 7.23104C39.3125 6.55699 39.6875 5.6281 39.6875 4.60978ZM32.3365 34.6875V35.1875H32.8365H38.8486H39.3486V34.6875V11.176V10.676H38.8486H32.8365H32.3365V11.176V34.6875Z" fill="black" stroke="black"/>
</svg>
