<svg width="36" height="35" viewBox="0 0 36 35" fill="none" xmlns="http://www.w3.org/2000/svg">
<path d="M35.875 31.6659V33.4516C35.6448 33.5332 35.4168 33.6855 35.1866 33.6877C33.3218 33.707 31.4591 33.6984 29.5942 33.6984C29.1531 33.6984 28.9357 33.4924 28.9037 33.0374C28.8653 32.4557 28.7844 31.8762 28.714 31.2238C28.1748 31.7024 27.7358 32.1617 27.2328 32.5309C23.0556 35.5893 16.9602 34.3552 14.2152 29.7686C11.5426 25.3044 11.4509 20.5654 13.563 15.893C15.5792 11.4331 20.2466 9.1559 25.1314 10.4866C26.1096 10.7527 27.0197 11.2786 27.9724 11.6885C27.9724 11.5254 27.9724 11.2764 27.9724 11.0296C27.9724 7.84668 27.9724 4.66592 27.9724 1.48301C27.9724 0.648112 28.0491 0.566554 28.859 0.564408C30.7451 0.560115 32.6334 0.564408 34.5195 0.564408C35.3067 0.564408 35.701 0.956459 35.7024 1.74056C35.7152 11.1047 35.7237 20.4667 35.745 29.8309C35.745 30.4425 35.8303 31.0542 35.875 31.6659ZM28.0299 21.8811C28.0001 21.8811 27.9702 21.879 27.9404 21.8768C27.9404 21.1685 27.9745 20.456 27.934 19.7499C27.8424 18.1895 26.7639 16.8245 25.3317 16.3974C23.8015 15.9402 22.2329 16.4553 21.2611 17.7345C19.7479 19.7263 19.5475 23.6282 20.8455 25.8259C21.7214 27.309 23.1984 28.043 24.8053 27.7941C26.3633 27.5515 27.5205 26.414 27.8189 24.6777C27.9766 23.7612 27.9638 22.8147 28.0299 21.8811Z" fill="black"/>
<path d="M0.9375 17.9319C0.9375 13.0084 0.9375 8.08704 0.9375 3.16351C0.9375 2.26208 1.00357 2.19554 1.90935 2.1934C3.8637 2.19125 5.82018 2.1891 7.77454 2.1934C8.60359 2.1934 8.6995 2.28569 8.6995 3.0798C8.6995 12.9934 8.69736 22.907 8.71015 32.8227C8.71015 33.4795 8.46506 33.7156 7.82355 33.7091C5.82231 33.6855 3.82321 33.7048 1.82197 33.6984C1.0398 33.6984 0.939631 33.5868 0.939631 32.7669C0.9375 27.8219 0.9375 22.8769 0.9375 17.9319Z" fill="black"/>
</svg>
