<?xml version="1.0" encoding="UTF-8"?>
<svg id="Calque_1" data-name="Calque 1" xmlns="http://www.w3.org/2000/svg" viewBox="0 0 344.06 328.87">
  <defs>
    <style>
      .cls-1 {
        stroke-width: 0px;
      }
    </style>
  </defs>
  <path class="cls-1" d="m344.06,328.87c-3.8-.07-7.6-.19-11.4-.19-19.36-.02-38.73,0-58.09,0h-4.28c0-1.75,0-3.07,0-4.38-.04-39.52-.02-79.04-.17-118.55-.03-8.99-1.47-17.83-5.22-26.14-6.19-13.74-17.27-19.87-31.88-19.7-18.24.21-33.43,11.61-38.35,29.09-1.61,5.7-1.77,11.94-1.79,17.94-.15,39.07-.08,78.14-.08,117.21v4.26h-73.51V107.07h73.35v30.83c1.22-1.5,1.85-2.16,2.35-2.9,15.54-22.85,37.29-33.58,64.75-33.29,15.71.17,30.61,3.34,44.23,11.52,14.34,8.61,24.19,21.04,30.69,36.25,5.19,12.15,7.75,24.94,8.8,38.06.11,1.44.4,2.86.61,4.28v137.04Z"/>
  <path class="cls-1" d="m4.78,328.43V107.02h73.17v221.41H4.78Z"/>
  <path class="cls-1" d="m42.26,76.64c-17.19-.45-30.41-6.04-37.96-20.92C-8.12,31.26,7.66,3.2,35.11.39c12.68-1.3,24.74.36,34.71,8.96,11.99,10.35,15.62,23.83,11.88,38.89-3.84,15.46-14.74,24.01-29.97,27.28-3.48.75-7.09.85-9.47,1.12Z"/>
</svg>