<?xml version="1.0" encoding="UTF-8"?>
<svg id="Calque_1" data-name="Calque 1" xmlns="http://www.w3.org/2000/svg" viewBox="0 0 186.79 186.79">
  <defs>
    <style>
      .cls-1 {
        stroke-width: 0px;
      }
    </style>
  </defs>
  <path class="cls-1" d="m159.85,26.95c-14.1-14.1-29.16-4.97-38.59,4.45L32.22,120.45c-9.43,9.43-19.29,23.75-4.45,38.58,14.84,14.84,29.16,4.98,38.58-4.45l89.05-89.05c9.43-9.43,18.55-24.49,4.45-38.59Z"/>
  <path class="cls-1" d="m74.78,23.31l18.86,18.85,19.19-19.19c1.3-1.31,2.63-2.52,3.96-3.66-2.01-10.14-7.8-19.31-23.16-19.31s-21.17,9.2-23.17,19.36c1.44,1.24,2.87,2.49,4.32,3.94Z"/>
  <path class="cls-1" d="m112.82,163.36l-19.18-19.18-18.85,18.84c-1.43,1.43-2.86,2.74-4.27,3.97,2.16,10.34,8.28,19.8,23.11,19.8s20.98-9.52,23.13-19.89c-1.32-1.14-2.64-2.25-3.94-3.55Z"/>
  <path class="cls-1" d="m66.78,69.01H30.43c-13.33,0-30.43,4.2-30.43,24.14,0,14.88,9.52,20.99,19.89,23.13,1.23-1.42,46.89-47.27,46.89-47.27Z"/>
  <path class="cls-1" d="m167.43,69.98c-1.15,1.34-46.91,47.3-46.91,47.3h35.83c13.33,0,30.43-3.15,30.43-24.14,0-15.39-9.2-21.17-19.36-23.17Z"/>
  <path class="cls-1" d="m78.69,57.08l6.49-6.49-18.84-18.85c-9.43-9.42-23.75-19.29-38.59-4.45-10.88,10.88-8.47,21.47-2.69,30.07,1.76-.13,53.63-.28,53.63-.28Z"/>
  <path class="cls-1" d="m108.57,129.22l-6.51,6.51,19.19,19.19c9.43,9.43,24.49,18.55,38.59,4.45,10.52-10.52,8.11-21.57,2.29-30.42-1.87.13-53.56.27-53.56.27Z"/>
</svg>