<?xml version="1.0" encoding="UTF-8"?>
<svg id="Calque_1" data-name="Calque 1" xmlns="http://www.w3.org/2000/svg" viewBox="0 0 378.86 371.9">
  <defs>
    <style>
      .cls-1 {
        stroke-width: 0px;
      }
    </style>
  </defs>
  <path class="cls-1" d="m348.97,287.64c-20.61-.51-36.59,1.55-49.99,7.22-3.87,1.55-10.05,1.55-10.57,6.44,2.06,2.06,2.32,5.41,4.12,8.25,3.09,5.15,8.5,12.11,13.4,15.72,5.41,4.12,10.82,8.24,16.49,11.85,10.05,6.18,21.39,9.79,31.18,15.98,5.67,3.6,11.34,8.25,17.01,12.11,2.84,2.06,4.64,5.41,8.25,6.7v-.77c-1.8-2.32-2.32-5.67-4.12-8.25-2.58-2.58-5.15-4.9-7.73-7.47-7.47-10.05-16.75-18.81-26.8-26.02-8.24-5.67-26.28-13.4-29.63-22.93,0,0-.26-.26-.52-.51,5.67-.52,12.37-2.58,17.78-4.12,8.76-2.32,16.75-1.8,25.77-4.12,4.12-1.03,8.25-2.32,12.37-3.61v-2.32c-4.64-4.64-7.99-10.82-12.88-15.2-13.14-11.34-27.57-22.42-42.52-31.69-7.99-5.15-18.3-8.5-26.8-12.88-3.09-1.55-8.25-2.32-10.05-4.9-4.64-5.67-7.22-13.14-10.57-19.84-7.47-14.17-14.69-29.89-21.13-44.83-4.64-10.05-7.47-20.1-13.14-29.38-26.54-43.8-55.4-70.34-99.72-96.37-9.53-5.41-20.87-7.73-32.98-10.56-6.44-.26-12.88-.77-19.33-1.03-4.12-1.8-8.25-6.7-11.85-9.02C50.33,6.77,12.45-13.32,1.63,13.22c-6.96,16.75,10.31,33.24,16.23,41.74,4.38,5.93,10.05,12.63,13.14,19.33,1.8,4.38,2.32,9.02,4.12,13.66,4.12,11.34,7.99,23.96,13.4,34.53,2.84,5.41,5.93,11.08,9.53,15.97,2.06,2.83,5.67,4.12,6.44,8.76-3.61,5.15-3.87,12.88-5.93,19.33-9.28,29.12-5.67,65.19,7.47,86.58,4.12,6.44,13.91,20.62,27.06,15.2,11.6-4.64,9.02-19.33,12.37-32.21.77-3.09.26-5.15,1.8-7.21,0,.26,0,.52,0,.52,3.61,7.21,7.21,14.17,10.56,21.39,7.99,12.63,21.9,25.77,33.5,34.53,6.19,4.64,11.08,12.63,18.81,15.46v-.77h-.52c-1.55-2.32-3.87-3.35-5.93-5.15-4.64-4.64-9.79-10.31-13.4-15.46-10.82-14.43-20.36-30.41-28.86-46.9-4.12-7.99-7.73-16.75-11.08-24.74-1.55-3.09-1.55-7.73-4.12-9.28-3.87,5.67-9.53,10.56-12.37,17.52-4.89,11.08-5.41,24.74-7.21,38.91-1.03.26-.52,0-1.03.52-8.24-2.06-11.08-10.56-14.17-17.78-7.73-18.29-9.02-47.67-2.32-68.8,1.8-5.41,9.53-22.42,6.44-27.57-1.55-4.9-6.7-7.73-9.53-11.6-3.35-4.9-6.96-11.08-9.28-16.49-6.18-14.43-9.28-30.41-15.98-44.84-3.09-6.7-8.5-13.66-12.88-19.84-4.89-6.96-10.31-11.85-14.17-20.1-1.29-2.83-3.09-7.47-1.03-10.56.52-2.06,1.55-2.83,3.61-3.35,3.35-2.84,12.88.77,16.23,2.32,9.53,3.86,17.52,7.47,25.51,12.88,3.61,2.58,7.47,7.47,12.11,8.76h5.41c8.25,1.8,17.52.52,25.25,2.83,13.66,4.38,26.02,10.82,37.11,17.78,33.76,21.39,61.58,51.79,80.39,88.12,3.09,5.92,4.38,11.34,7.21,17.52,5.41,12.63,12.11,25.51,17.52,37.88,5.41,12.11,10.56,24.48,18.29,34.53,3.87,5.41,19.33,8.24,26.28,11.08,5.15,2.32,13.14,4.38,17.78,7.21,8.76,5.41,17.52,11.6,25.77,17.52,4.12,3.09,17.01,9.53,17.78,14.69h0Z"/>
  <path class="cls-1" d="m86.14,63.72c-4.38,0-7.47.52-10.56,1.29,0,0,0,.26,0,.52h.52c2.06,4.12,5.67,6.96,8.24,10.56,2.06,4.12,3.87,8.25,5.93,12.37.26-.26.51-.52.51-.52,3.61-2.58,5.41-6.7,5.41-12.88-1.55-1.8-1.8-3.61-3.09-5.41-1.55-2.58-4.9-3.87-6.96-5.93h0Z"/>
</svg>