<?xml version="1.0" encoding="utf-8"?>
<!-- Generator: Adobe Illustrator 28.0.0, SVG Export Plug-In . SVG Version: 6.00 Build 0)  -->
<svg version="1.1" id="Calque_1" xmlns="http://www.w3.org/2000/svg" xmlns:xlink="http://www.w3.org/1999/xlink" x="0px" y="0px"
	 viewBox="0 0 595.28 841.89" style="enable-background:new 0 0 595.28 841.89;" xml:space="preserve">
<g id="JSLwCS.tif">
	<g>
		<path d="M273.72,165.06c15.3,0,30.61,0,45.91,0c0.75,0.28,1.48,0.72,2.24,0.8c47.59,4.88,90.63,21.54,128.77,50.39
			c39,29.49,67.42,67.13,85.09,112.77c12.29,31.72,17.44,64.56,16.62,98.61c-0.49,20.45-3.14,40.43-8.52,60.02
			c-14.3,52.02-42.38,95.32-83.7,129.96c-7.84,6.57-16.28,12.43-24.5,18.67c-1.03-1.25-1.49-1.72-1.85-2.26
			C368.6,535.44,303.26,436.95,238.48,338.1c-6.4-9.77-13.5-13.77-24.47-12.35c-0.82,0.11-1.66,0.11-2.49,0.19
			c-7.35,0.69-10.56,4.2-10.56,11.57c-0.02,61.54,0.13,123.09-0.19,184.63c-0.08,15.29,2.79,18.08,17.82,17.28
			c10.79-0.57,13.15-2.77,13.18-13.5c0.13-43.74,0.25-87.48,0.42-131.22c0.01-3.5,0.39-7,0.6-10.5
			c60.84,88.11,119.4,177.27,186,261.13c-2.05,1.32-3.08,2.21-4.26,2.71c-13,5.46-25.79,11.55-39.11,16.12
			c-28.11,9.63-57.19,12.7-86.91,12.08c-26.24-0.55-51.51-5.37-76.14-13.88c-37.72-13.03-70.55-34-98.41-62.56
			c-34.76-35.63-57.6-77.73-67.76-126.55c-1.91-9.19-3.36-18.48-5.02-27.73c0-16.3,0-32.6,0-48.9c1.87-10.59,3.34-21.27,5.67-31.76
			c12.23-55,40.02-100.87,82.43-137.74c33.48-29.11,72.03-48.41,115.66-57.12C254.47,168.07,264.12,166.69,273.72,165.06z
			 M388.58,504.72c0.35-0.13,0.71-0.27,1.06-0.4c0-1.82,0-3.64,0-5.46c0.05-28.44,0.14-56.88,0.13-85.33
			c-0.01-27.94-0.07-55.89-0.26-83.83c-0.05-7.71-3.38-10.67-11.15-10.74c-2.99-0.03-5.99-0.04-8.98,0
			c-7.17,0.11-10.67,3.46-10.7,10.77c-0.16,38.09,0.04,76.18-0.5,114.26c-0.14,9.9,1.8,18.26,7.71,26.35
			C373.98,481.43,381.07,493.23,388.58,504.72z"/>
	</g>
</g>
</svg>
