<?xml version="1.0" encoding="utf-8"?>
<!-- Generator: Adobe Illustrator 28.0.0, SVG Export Plug-In . SVG Version: 6.00 Build 0)  -->
<svg version="1.1" id="Calque_1" xmlns="http://www.w3.org/2000/svg" xmlns:xlink="http://www.w3.org/1999/xlink" x="0px" y="0px"
	 viewBox="0 0 266 300" style="enable-background:new 0 0 266 300;" xml:space="preserve">
<g id="xfKiuT.tif">
	<g>
		<path d="M266,217.2c-3,11.1-11.8,16.4-21.1,21.7c-32.7,18.6-65.1,37.6-97.7,56.4c-8.8,5-17.8,5.3-26.6,0.1
			c-11.7-6.8-23.2-13.7-34.8-20.6c-1.1-0.7-2.1-1.5-3.5-2.6c6.4-3,12.2-6,18.3-8.4c1.3-0.5,3.5,0.6,5,1.4
			c7.6,4.4,15.2,8.9,22.7,13.6c3.2,2,5.9,2.1,9.2,0.2c34.8-20.3,69.7-40.4,104.6-60.5c3.1-1.8,4.4-3.9,4.4-7.5
			c-0.1-40.6-0.1-81.1,0-121.7c0-3.4-1.2-5.4-4.2-7.1c-34.9-20-69.9-40.1-104.7-60.3c-3.3-1.9-5.8-2-9.2,0
			C93.5,42,58.6,62.1,23.7,82.1c-3,1.7-4.2,3.7-4.2,7.1c0.1,40.5,0.1,81.1,0,121.7c0,3.6,1.2,5.8,4.4,7.6c8.9,4.9,17.4,10.5,26.5,15
			c4.6,2.2,10.1,3.8,15.2,3.6c7.9-0.2,12.8-6.9,12.8-15.6c0-39.6,0-79.1,0-118.7c0-7.8,0.1-7.9,7.8-7.9C99,95,97.9,93.5,97.9,106.7
			c0,38.9-0.1,77.8,0,116.7c0.1,30.4-24.2,37.4-44.1,31.5c-6.9-2.1-13.4-5.8-19.9-9.1c-7.4-3.9-14.5-8.1-21.7-12.4
			C5,229.1,1.2,222.7,1.2,214.1c0-42.4,0-84.8,0-127.1c0-8.6,3.8-15.1,11.1-19.3C48.6,46.5,85.1,25.4,121.6,4.4
			c7.6-4.4,15.7-4.4,23.3,0c36.5,21,72.9,42.2,109.4,63.2c6.4,3.7,9,9.9,11.7,16V217.2z"/>
		<path d="M164.3,90.2c9.7,1.9,19.8,2.9,29.1,5.9c14.2,4.6,23,17.4,23.3,31.1c0.1,3.6-1.1,5.4-4.8,5c-1-0.1-2-0.1-3,0
			c-7.1,1.1-11.7-0.5-13.6-8.6c-1.7-7-7.9-10.6-14.7-12.1c-11-2.4-22.1-2.6-33.2-0.1c-2.6,0.6-5,1.7-7.3,3.1
			c-4.7,2.7-6.3,7.1-6,12.3c0.2,5.1,3.8,7.8,8.2,8.8c9.2,2,18.6,3.5,27.9,5.3c9.9,1.9,20,3.4,29.8,6c11.8,3.2,20.1,10.3,21.3,23.4
			c1.2,12.8-2.4,23.6-13,31.6c-8.7,6.5-18.9,9.1-29.4,9.9c-13.9,1.1-27.9,1-41.6-3.3c-16.4-5.1-26.2-15.6-27.8-33.2
			c-0.3-3.8,0.7-5.8,4.7-5.7c0.8,0,1.7,0,2.5,0c3.5,0.1,7.7-0.9,10.2,0.7c2.3,1.5,2.8,5.8,4,9c2.5,6.6,7.5,10.6,14.1,12.2
			c13.9,3.4,28,3.5,42,0.3c2.7-0.6,5.4-1.9,7.7-3.5c4.9-3.3,6.4-8.3,5.9-13.9c-0.4-5.3-4.1-8.2-8.6-9.2c-10.2-2.3-20.5-3.8-30.8-5.8
			c-9.6-1.9-19.4-3.2-28.7-5.9c-11.4-3.4-18.2-11.5-19.1-23.6c-0.9-11.9,2.9-22,13-29c11.3-7.9,24.3-9.2,37.7-9.1
			C164.2,91,164.3,90.6,164.3,90.2L164.3,90.2z"/>
	</g>
</g>
</svg>
