<svg width="42" height="33" viewBox="0 0 42 33" fill="none" xmlns="http://www.w3.org/2000/svg">
<path d="M0.563008 1.68578C0.717379 1.59895 0.864133 1.45727 1.02815 1.43341C2.04832 1.28614 3.06951 1.13127 4.09628 1.04189C6.3311 0.848421 8.57202 0.784946 10.8155 0.823031C12.5892 0.852991 14.3472 1.03072 16.0499 1.54969C19.4872 2.59678 21.8286 4.76559 22.6 8.34151C23.2784 11.4873 22.7503 14.4519 20.775 17.0655C19.7497 18.4224 18.3588 19.314 16.8095 19.9722C14.8433 20.8075 12.7771 21.1482 10.6545 21.1934C9.81055 21.2112 8.96557 21.1965 8.09063 21.1965V21.4788C8.09063 24.7028 8.09063 27.9268 8.09063 31.1509C8.09063 31.6612 7.97739 31.7739 7.46197 31.7739C5.36324 31.7739 3.26501 31.7719 1.16627 31.777C0.911358 31.7775 0.700621 31.7242 0.5625 31.4946C0.563008 21.558 0.563008 11.6219 0.563008 1.68578ZM8.10129 15.0627C8.90362 15.2379 10.5631 15.2344 11.5787 15.0343C13.6901 14.6179 15.1511 13.3332 15.3131 11.1634C15.4649 9.1347 14.5813 7.62044 12.5268 7.01616C11.4777 6.70741 10.4052 6.72214 9.33068 6.78917C8.92139 6.81456 8.51413 6.87448 8.10079 6.91917V15.0633L8.10129 15.0627Z" fill="black"/>
<path d="M41.1869 25.3497C41.1143 25.7636 41.0686 26.1845 40.964 26.5903C40.4552 28.5722 39.2213 29.9687 37.4333 30.9086C36.1663 31.5743 34.8049 31.9308 33.3937 32.0923C30.9629 32.37 28.561 32.2009 26.216 31.4844C25.5411 31.2783 24.8962 30.9711 24.2447 30.6933C23.9634 30.5734 23.8984 30.4165 23.9705 30.1225C24.3574 28.5473 24.7464 26.9731 25.1405 25.4C25.2253 25.0623 25.5015 24.947 25.8052 25.1166C27.3169 25.9611 28.9419 26.4521 30.6562 26.639C31.4575 26.7264 32.2649 26.7213 33.0322 26.412C33.9797 26.0307 34.1641 24.8668 33.3237 24.2833C32.7981 23.9182 32.1862 23.6532 31.5799 23.4333C30.252 22.9509 28.9246 22.4756 27.7272 21.7068C26.3927 20.8501 25.2679 19.7827 24.7916 18.2319C24.0375 15.7767 24.5408 13.5429 26.2434 11.6208C27.488 10.2158 29.1191 9.46015 30.9243 9.05493C32.6214 8.67357 34.3306 8.69134 36.0455 8.91935C37.3683 9.09504 38.6474 9.42613 39.8692 9.96897C40.2333 10.131 40.3059 10.2813 40.2059 10.6702C39.8347 12.1185 39.4625 13.5667 39.0887 15.014C38.9607 15.5086 38.7566 15.5939 38.293 15.3603C36.9615 14.6905 35.557 14.2903 34.0625 14.2462C33.511 14.2299 32.9707 14.2883 32.4548 14.527C31.7033 14.8743 31.5027 15.9539 32.2756 16.4724C32.986 16.9487 33.7741 17.2488 34.5688 17.5337C35.6276 17.913 36.6802 18.305 37.6542 18.8773C38.8577 19.5842 39.8722 20.4814 40.5024 21.7565C40.8665 22.4928 41.0635 23.2748 41.1387 24.0904C41.1494 24.2061 41.1707 24.3209 41.1875 24.4362V25.3502L41.1869 25.3497Z" fill="black"/>
</svg>
