<svg width="96" height="91" viewBox="0 0 96 91" fill="none" xmlns="http://www.w3.org/2000/svg">
<g clip-path="url(#clip0_40_28)">
<path d="M74.797 49.3814L96 45.2717L74.7517 41.3661L93.5912 31.2663L72.1105 33.7536L86.7503 18.647L67.1172 27.2855L76.1346 8.63853L60.2706 22.5902L62.7871 2.21335L52.2281 20.119L48 0L43.6188 20.8388L32.2891 2.50345L35.2419 22.8266L19.0832 9.18112L28.4973 27.6562L8.68296 19.3937L23.6458 34.221L2.1084 32.142L21.1633 41.8818L0 46.1903L21.288 49.8918L2.55615 60.1742L24.0142 57.4774L9.53879 72.7291L29.0755 63.8972L20.2565 82.6355L35.9731 68.528L33.672 88.9263L44.0439 70.9186L48.4818 91L52.4945 70.8381L63.2462 88.647L60.5143 68.2916L76.5257 82.0929L67.31 63.5318L87.0337 71.9877L72.2295 57.0153L93.7442 59.2985L74.797 49.3814Z" fill="#FEDB51"/>
</g>
<defs>
<clipPath id="clip0_40_28">
<rect width="96" height="91" fill="white"/>
</clipPath>
</defs>
</svg>
