<?xml version="1.0" encoding="utf-8"?>
<!-- Generator: Adobe Illustrator 28.0.0, SVG Export Plug-In . SVG Version: 6.00 Build 0)  -->
<svg version="1.1" id="Calque_1" xmlns="http://www.w3.org/2000/svg" xmlns:xlink="http://www.w3.org/1999/xlink" x="0px" y="0px"
	 viewBox="0 0 512 512" style="enable-background:new 0 0 512 512;" xml:space="preserve">
<path d="M301.5,411.2c1.2-1,2.2-2.3,3.5-3.1c21.2-13.2,19.5-35,5.6-50.7c-11.1-12.5-25.8-17.8-41.7-20.2c-14-2.1-28.1-2.3-42.1,0.8
	c-1,0.2-1.9,0.4-2.9,0.7c-0.6,0.2-1.1,0.6-1.6,0.9c1.4,6.5,3.2,12.7,4.1,19c7.9,56.9-32.2,98.8-75.3,104.3
	c-8.4,1.1-17.3,0.8-25.7-0.4c-13-1.8-22.2-12.9-24.3-27.4c-2.9-19.6,3.4-36.3,16.6-50.7c13.8-14.9,30.4-26.2,47.8-36.6
	c6.9-4.1,13.9-7.8,20.9-11.7c1.2-0.7,2.4-1.5,4.4-2.7c-3.3-2.7-6-5.1-8.9-7.2c-17.9-13-36.1-25.6-53.7-39c-13.2-10-25-21.5-34-35.5
	c-7.3-11.3-13.1-23.4-11.8-37.3c1.1-11.7,5.2-22.6,10.9-32.9c13.6-24.7,32.9-44.3,55.2-60.9c41.2-30.8,86.6-53.1,136.5-65.6
	c32-8,64.4-8.9,96.4,1.3c15.1,4.8,28.8,12.3,38.5,25.4c9.6,12.8,12.8,27.5,10.3,43c-7.9,49.4-38.8,80.3-82.6,99.7
	c-25.2,11.1-52,15.9-79.6,14.9c-16.9-0.6-32.9-4.3-46.1-15.9c-5.2-4.6-9.8-9.6-11.1-16.7c-0.2-1.1,0.5-2.4,0.7-3.6
	c1.1,0.3,2.7,0.3,3.4,1c16.3,16.7,36.6,19.2,58.4,17.1c30.2-3,57.9-13,82.7-30.5c17.5-12.4,32.1-27.4,40.9-47.4
	c3.8-8.4,5.8-17.2,5.1-26.6c-1-13.5-8.6-21.8-20.3-27.3c-11.2-5.2-23.1-7.3-35.3-7.8c-28.3-1.2-55.5,4.6-81.8,14.6
	c-37.2,14.1-71.8,33.1-102.5,58.7c-11.3,9.4-21.3,20.1-28.9,32.8c-16.5,27.5-14,54.8,9,77.1c13.8,13.4,29.5,24.8,44.2,37.3
	c7.5,6.3,14.9,12.8,22,19.6c2.4,2.3,4.4,2.4,7.4,1.8c26.5-5.7,53-8.2,78.6,3.4c18.5,8.4,31.4,22.1,36,42.5
	c4,17.7-4.8,35.2-21.2,42.3c-2.1,0.9-4.5,1.2-6.8,1.7C302.1,412.4,301.8,411.8,301.5,411.2L301.5,411.2z M202.4,348.4
	c-1.2,0.2-1.7,0.2-2.1,0.4c-18.7,9.4-36.1,20.6-50.5,35.9c-9.1,9.7-15.8,20.9-18.1,34.3c-2.2,12.5,5.7,20.4,18.1,18.2
	c16.5-3,29.3-12,39.6-24.8C204.6,393.4,208.4,372.1,202.4,348.4L202.4,348.4z"/>
</svg>
