<svg width="64" height="66" viewBox="0 0 64 66" fill="none" xmlns="http://www.w3.org/2000/svg">
<path d="M63.209 33.0999V33.2171C57.3681 33.2171 52.0715 34.9403 47.4773 38.3385C43.7993 41.0543 40.5551 44.8522 37.8345 49.6014C33.2059 57.7074 31.6837 65.9237 31.6699 66.0064H31.6148H31.5528C31.5391 65.9237 30.0169 57.7074 25.3883 49.6014C22.6676 44.8453 19.4235 41.0543 15.7454 38.3385C11.1444 34.9403 5.85461 33.2171 0.0137939 33.2171V33.0999C5.85461 33.0999 11.1513 31.3767 15.7454 27.9785C19.4235 25.2627 22.6676 21.4648 25.3883 16.7156C29.9135 8.80258 31.4633 0.793077 31.5528 0.331255V0.310577H31.6148H31.6699V0.331255C31.7595 0.786184 33.3161 8.80258 37.8345 16.7156C40.5551 21.4785 43.7993 25.2627 47.4773 27.9854C52.0783 31.3767 57.3681 33.0999 63.209 33.0999Z" fill="#FEDB51"/>
</svg>
