<svg width="81" height="103" viewBox="0 0 81 103" fill="none" xmlns="http://www.w3.org/2000/svg">
<g clip-path="url(#clip0_40_30)">
<path d="M63.209 58.0999V58.2171C57.3681 58.2171 52.0715 59.9403 47.4773 63.3385C43.7993 66.0543 40.5551 69.8522 37.8345 74.6014C33.2059 82.7074 31.6837 90.9237 31.6699 91.0064H31.6148H31.5528C31.5391 90.9237 30.0169 82.7074 25.3883 74.6014C22.6676 69.8453 19.4235 66.0543 15.7454 63.3385C11.1444 59.9403 5.85461 58.2171 0.0137939 58.2171V58.0999C5.85461 58.0999 11.1513 56.3767 15.7454 52.9785C19.4235 50.2627 22.6676 46.4648 25.3883 41.7156C29.9135 33.8026 31.4633 25.7931 31.5528 25.3313V25.3106H31.6148H31.6699V25.3313C31.7595 25.7862 33.3161 33.8026 37.8345 41.7156C40.5551 46.4785 43.7993 50.2627 47.4773 52.9854C52.0783 56.3767 57.3681 58.0999 63.209 58.0999Z" fill="#FEDB51"/>
<path d="M80.9999 86.5467V86.6019C78.0795 86.6019 75.4346 87.4635 73.1341 89.1591C71.2951 90.517 69.6696 92.4126 68.3127 94.7906C65.9984 98.8436 65.2339 102.952 65.227 102.993H65.1994H65.1719C65.165 102.952 64.4073 98.8436 62.0862 94.7906C60.7293 92.4126 59.1038 90.517 57.2647 89.1591C54.9642 87.4635 52.3193 86.6019 49.3989 86.6019V86.5467C52.3193 86.5467 54.9642 85.6851 57.2647 83.9895C59.1038 82.6316 60.7293 80.7361 62.0862 78.358C64.3454 74.4015 65.1237 70.3968 65.1719 70.1693H65.1994H65.227C65.2683 70.3968 66.0535 74.4015 68.3127 78.358C69.6696 80.7361 71.2951 82.6316 73.1341 83.9964C75.4346 85.692 78.0795 86.5536 80.9999 86.5536V86.5467Z" fill="#FEDB51"/>
<path d="M80.3112 21.8228V21.8986C76.4196 21.8986 72.9 23.0428 69.8418 25.3037C67.3898 27.1096 65.2339 29.6393 63.4224 32.8031C60.3436 38.2002 59.3311 43.6663 59.3173 43.7214H59.2829H59.2416C59.2347 43.6663 58.2222 38.2002 55.1365 32.8031C53.325 29.6393 51.1691 27.1096 48.7171 25.3037C45.6589 23.0428 42.1324 21.8986 38.2477 21.8986V21.8228C42.1393 21.8228 45.6589 20.6786 48.7171 18.4177C51.1691 16.6118 53.325 14.0821 55.1365 10.9183C58.1464 5.65214 59.1796 0.317072 59.2416 0.0137857V0H59.2829H59.3173V0.0137857C59.3793 0.317072 60.4125 5.65214 63.4224 10.9183C65.2339 14.089 67.3898 16.6118 69.8418 18.4177C72.9 20.6786 76.4265 21.8228 80.3112 21.8228Z" fill="#FEDB51"/>
</g>
<defs>
<clipPath id="clip0_40_30">
<rect width="81" height="103" fill="white"/>
</clipPath>
</defs>
</svg>
