<?xml version="1.0" encoding="UTF-8"?>
<svg id="Calque_1" data-name="Calque 1" xmlns="http://www.w3.org/2000/svg" viewBox="0 0 178.77 64.44">
  <defs>
    <style>
      .cls-1 {
        fill: #fedb51;
        stroke-width: 0px;
      }
    </style>
  </defs>
  <path class="cls-1" d="m.36,46.12c7.81,9.63,19.81,15.5,32.15,16.18,6,.33,12.74-.39,18.01-3.51,4.83-2.87,7.93-8.34,6.11-13.97s-7.89-7.55-12.67-4.3c-5.27,3.59-5.68,10.46-2.25,15.52,3.9,5.75,10.8,7.67,17.39,8.21s13.84-.07,20.47-1.86c12.63-3.41,23.86-11.36,30.51-22.73,3.06-5.24,5.2-11.2,5.63-17.28.38-5.46-.64-11.43-3.96-15.92S103.42-.22,97.95.02c-5.18.22-10.59,2.41-13.88,6.52-4.03,5.02-5.08,12.53-3.16,18.6,1.68,5.31,5.52,9.59,10.12,12.6s9.87,4.77,15.27,5.23c7.52.64,15.02-1.4,22.05-3.87,12.76-4.49,27.33-11.77,40.84-5.71,2.73,1.23,5.13,2.97,7.08,5.24,1.26,1.47,3.38-.66,2.12-2.12-8.05-9.35-21.66-9.56-32.69-6.6-12.99,3.48-25.52,11.26-39.4,10.08-9.34-.79-19.92-6.58-22.64-16.1-1.53-5.37-.5-12.27,3.55-16.34,3.25-3.26,8.12-4.77,12.66-4.48,10.88.71,14.1,12.95,12.51,22.01-1.96,11.19-9.14,21.25-18.47,27.57-10.35,7.01-23.3,9.78-35.67,8.55-5.83-.58-12.17-2.62-14.9-8.28-1.11-2.31-1.37-5.16-.05-7.44,1.17-2,3.42-3.6,5.8-3.55,4.91.09,6.01,6.49,4.16,10.04-2.55,4.91-8.9,6.61-13.97,7.17-10.99,1.22-22.44-2.2-30.98-9.23-2.14-1.76-4.09-3.74-5.83-5.89-1.22-1.5-3.33.63-2.12,2.12H.36Z"/>
</svg>