<?xml version="1.0" encoding="UTF-8"?>
<svg id="Calque_1" data-name="Calque 1" xmlns="http://www.w3.org/2000/svg" viewBox="0 0 620.7 408.34">
  <defs>
    <style>
      .cls-1 {
        stroke-width: 0px;
      }
    </style>
  </defs>
  <g id="Tfi8o9.tif">
    <g>
      <path class="cls-1" d="m336.3,326.01c4.55-2.72,8.92-5.38,13.33-7.95,15.66-9.12,31.4-18.09,46.94-27.41,3.89-2.33,5.71-1.74,8.24,1.93,11.19,16.22,24.49,30.44,43,38.29,27.4,11.61,54.23,9.42,78.64-7.46,11.04-7.63,14.35-20.45,12.59-33.86-1.88-14.39-10.45-24.42-22.84-30.79-16.09-8.26-32.29-16.55-49.12-23.07-28.96-11.21-55.46-26.18-77.17-48.35-17.1-17.45-26.84-38.74-28.41-63.66-.9-14.18-1.77-28.38,2.08-42.03,12.23-43.38,40.8-70.3,85.09-78.44,27.77-5.11,56.02-4.53,83.21,4.77,27.57,9.44,47.03,28.75,61.75,53.24.63,1.06.04,4.04-.95,4.71-18.58,12.59-37.27,25.01-56.08,37.24-.96.62-3.87-.23-4.78-1.31-3.63-4.31-6.58-9.19-10.21-13.5-15.25-18.08-41.03-21.28-59.77-14.3-25.38,9.46-28.01,42.61-11.78,58.89,6.31,6.33,14.31,11.48,22.39,15.47,23.84,11.77,48.25,22.37,72.14,34.04,14.96,7.3,28.91,16.34,41.37,27.58,20.03,18.08,29.57,41.28,33.42,67.27,2.89,19.54.98,38.79-5.21,57.5-3.86,11.67-10.73,21.73-18.73,30.95-22.13,25.49-50.06,39.56-83.83,41.39-14.57.79-29.25,1.73-43.76.81-56.76-3.58-101.52-27.62-129.97-78.38-.55-.98-.92-2.05-1.6-3.58h.02Z"/>
      <path class="cls-1" d="m195.13,240.81v156.16c0,4.79-2.32,7.18-6.96,7.19h-65.89c-4.78,0-7.17-2.33-7.17-6.98V83.37c0-5.01-2.53-7.52-7.6-7.53-33.78,0-67.55-.09-101.33.1-4.84.03-6.26-1.41-6.18-6.2C.29,50.62.19,31.49.28,12.37c.03-6.8.75-7.48,7.39-7.48,98.67,0,197.34.04,296-.11,5.08,0,6.48,1.43,6.48,6.45,0,19.78.36,39.56.82,59.33.1,4.21-1.36,5.37-5.44,5.35-33.44-.13-66.89-.1-100.33-.06-10.71.01-10.06-1.27-10.06,9.81v155.16h-.01Z"/>
    </g>
  </g>
</svg>