<?xml version="1.0" encoding="UTF-8"?>
<svg id="Calque_1" data-name="Calque 1" xmlns="http://www.w3.org/2000/svg" viewBox="0 0 171.39 81.13">
  <defs>
    <style>
      .cls-1 {
        fill: #fedb51;
        stroke-width: 0px;
      }
    </style>
  </defs>
  <path class="cls-1" d="m169.94,10.96c-8.69.31-17.47,2.06-25.54,5.33-6.19,2.51-11.99,5.93-16.92,10.47-5.35,4.93-9.31,11.08-12.15,17.75-4.69,11.03-9.03,30.93,6.34,35.71,6.73,2.09,14.72.44,19.99-4.25,4.64-4.13,7.11-10.3,8.13-16.31,2.01-11.95-.69-25.1-8.47-34.57-3.93-4.78-9.4-8.47-15.55-9.56-5.24-.93-10.63-.44-15.79.69-12.45,2.71-24.1,9.57-30.99,20.5-3.84,6.09-6.38,13.22-7.36,20.35-.87,6.26-.63,13.55,3.79,18.53,4.83,5.45,13.66,5.77,19.88,2.75,5.16-2.5,8.62-7.48,10.81-12.62,3.62-8.5,4.75-18.11,3.66-27.25-.76-6.37-2.45-12.93-6.11-18.29-4.15-6.08-10.7-9.59-18.15-9.2-8.95.47-17.18,5.52-24.09,10.86s-12.97,11.81-17.83,19.09-9.38,16.22-7.22,25.13c1.77,7.29,8.42,13.72,16.32,12.23,3.47-.65,6.5-2.76,9.06-5.1s4.72-5.06,6.31-8.14c2.97-5.72,4.14-12.24,4.16-18.64.02-8.59-2.12-17.5-6.93-24.69-3.87-5.78-9.57-10.1-16.41-11.65s-13.8-.53-20.17,1.92C15.65,17.01,4.77,27.7,1.32,41.45c-1.6,6.38-2.21,13.9.89,19.93,3.49,6.79,11.7,8.62,18.64,6.7,14.47-4.02,15.82-21.26,13.43-33.64-1.29-6.72-4.07-12.94-8.33-18.3-3.75-4.73-8.52-8.64-13.7-11.71C9.37,2.72,6.33,1.26,3.19.1c-1.81-.67-2.6,2.23-.8,2.89,2.77,1.02,5.49,2.33,8.25,3.96,4.7,2.77,8.99,6.24,12.49,10.43,4.07,4.87,6.73,10.65,8.06,16.84,1.24,5.82,1.6,12.09.26,17.92-1.39,6.02-4.9,11.11-11.04,12.94-6.24,1.86-13.55.21-16.1-6.32-2.25-5.76-1.3-12.6.41-18.36s5.1-11.21,9.52-15.59c8.76-8.66,22.48-14.96,34.89-11.59,11.19,3.04,17.17,13.8,19.3,24.48.1.48.19.96.27,1.44.03.21.07.42.1.63.04.29.01.1.02.13.02.18.05.37.07.55.23,1.97.34,3.96.33,5.95-.02,5.75-.99,11.66-3.6,16.83-1.47,2.91-3.42,5.45-5.82,7.67s-4.97,4.03-8.1,4.52c-7.35,1.15-12.58-6.55-12.85-13.09-.36-8.5,4.71-16.54,9.59-23.11s10.72-12.24,17.32-16.89,14.7-9.23,23.09-8.26c6.34.73,11.02,4.93,13.88,10.42,2.75,5.28,3.97,11.37,4.33,17.28.16,2.66.15,5.33-.09,7.99-.11,1.25-.21,1.97-.37,3.04-1.36,8.69-4.81,20.14-13.98,23.45-5.93,2.14-13.49.95-16.59-5.04-2.79-5.37-1.98-12.29-.64-17.94,1.56-6.56,4.32-13.06,8.54-18.36,3.98-5.01,9.12-8.91,14.86-11.7,4.26-2.08,8.84-3.52,13.5-4.4,1.81-.34,2.7-.47,4.43-.62,3.31-.29,6.7-.22,9.94.59,10.52,2.66,17.19,13.02,19.59,23.01,1.45,6.04,1.68,12.51.4,18.6-1.13,5.35-3.5,10.82-7.97,14.21-5.05,3.84-13.05,4.82-18.66,1.66s-6.37-9.34-5.98-14.95c.46-6.7,2.77-13.37,5.81-19.33,3-5.87,7.04-11.02,12.18-15.16,8.53-6.87,19.34-10.57,30.08-12.16,2.59-.38,5.24-.62,7.87-.71,1.93-.07,1.93-3.07,0-3h0Z"/>
</svg>